<svg width="128" height="175" viewBox="0 0 128 175" fill="none" xmlns="http://www.w3.org/2000/svg">
<path d="M14.646 49.701V116.006L63.999 144.138V125.015L30.982 106.195V76.633L63.999 95.454V77.834L14.646 49.701Z" fill="#180CDC"/>
<path d="M113.353 49.701V116.006L64 144.138V125.015L97.016 106.195V76.633L64 95.454V77.834L113.353 49.701V49.701ZM14.646 172.303V105.998L63.999 77.864V96.989L30.982 115.808V143.867L63.999 125.047V144.171L14.646 172.304V172.303Z" fill="#4F46E5"/>
<path d="M113.353 172.303V105.998L64 77.8643V96.9893L97.016 115.808V143.867L64 125.047V144.171L113.353 172.304V172.303Z" fill="#180CDC"/>
<path d="M14.646 2.701V69.006L63.999 97.138V78.015L30.982 59.195V29.633L63.999 48.454V30.834L14.646 2.701Z" fill="#180CDC"/>
<path d="M113.353 2.701V69.006L64 97.138V78.015L97.016 59.195V29.633L64 48.454V30.834L113.353 2.701V2.701ZM14.646 125.303V58.998L63.999 30.864V49.989L30.982 68.808V96.867L63.999 78.047V97.171L14.646 125.304V125.303Z" fill="#4F46E5"/>
<path d="M113.353 125.303V58.9983L64 30.8643V49.9893L97.016 68.8083V96.8673L64 78.0473V97.1713L113.353 125.304V125.303Z" fill="#180CDC"/>
</svg>
