<?xml version="1.0" encoding="UTF-8"?>
<svg id="main" xmlns="http://www.w3.org/2000/svg" xmlns:xlink="http://www.w3.org/1999/xlink" version="1.1" viewBox="0 0 160 160">
  <!-- Generator: Adobe Illustrator 29.4.0, SVG Export Plug-In . SVG Version: 2.1.0 Build 152)  -->
  <defs>
    <style>
      .st0 {
        fill: url(#_未命名的渐变_2);
      }

      .st1 {
        fill: url(#_未命名的渐变);
      }
    </style>
    <linearGradient id="_未命名的渐变" data-name="未命名的渐变" x1="131.6" y1="18.62" x2="27.14" y2="123.07" gradientTransform="translate(0 160) scale(1 -1)" gradientUnits="userSpaceOnUse">
      <stop offset="0" stop-color="#06366f"/>
      <stop offset="0" stop-color="#a5b4fc"/>
      <stop offset=".24" stop-color="#6c55ff"/>
      <stop offset=".51" stop-color="#654fff"/>
      <stop offset=".64" stop-color="#6650ff"/>
      <stop offset=".82" stop-color="#3e2eff"/>
      <stop offset="1" stop-color="#3e2eff"/>
    </linearGradient>
    <linearGradient id="_未命名的渐变_2" data-name="未命名的渐变 2" x1="114.27" y1="38.22" x2="70.83" y2="81.66" gradientTransform="translate(0 160) scale(1 -1)" gradientUnits="userSpaceOnUse">
      <stop offset="0" stop-color="#06366f"/>
      <stop offset="0" stop-color="#a5b4fc"/>
      <stop offset=".24" stop-color="#6c55ff"/>
      <stop offset=".51" stop-color="#654fff"/>
      <stop offset=".64" stop-color="#6650ff"/>
      <stop offset=".82" stop-color="#3e2eff"/>
      <stop offset="1" stop-color="#3e2eff"/>
    </linearGradient>
  </defs>
  <g id="logo">
    <path class="st1" d="M78.06,6.07c10.36-.81,17.27,1.71,25.82,7.06,8.61,5.41,25.91,16.54,30.86,25.01,9.49,16.21-10.34,23.12-22.45,26.06-22.1,5.35-52.24,7.72-69.9,23.31-21.37,18.86-9.48,43.49,14.37,51.71,31.93,11.01,77.92-1.56,89.86-35.86,2.53-7.28,2.44-14.96,4.57-21.74.92-2.94,3.89-6.8,6.55-3.09,4.53,6.31,1.25,22.12-1.19,29.14-17.29,49.74-87.97,56.77-128.86,34.02C6.66,129.98-1.54,110.33.22,86.71,2.35,58.35,23.85,37.8,45.38,22c9.25-6.79,20.95-15.01,32.68-15.93ZM27.08,128.21c-7.15-10.13-8.41-24.79-2.73-35.9,10.91-21.32,41.38-29.88,63.12-34.38,8.24-1.71,31.05-4.56,36.71-9.75,1.55-1.43,1.47-2.62.72-4.48-2.05-5.05-17.91-15.9-23.01-19.17-15.52-9.9-24.23-10.4-40.03-.54-16.13,10.07-38.09,28.33-46.11,45.76-7.54,16.4-6.74,42.8,7.3,55.65.41.38,3.76,3.06,4.04,2.82h-.01Z"/>
    <path class="st0" d="M113.78,75.11c19.37-.92,33.16,7.85,19.35,27.14-12.85,17.92-46.42,27.03-67.47,24.32-17.98-2.32-27.97-16.61-12.4-30.59,13.01-11.67,43.25-20.04,60.52-20.87h0ZM111.36,86.39c-13.22.87-44.31,9.53-52.73,20.07-3.95,4.94-.17,6.83,4.44,8.19,8.75,2.59,19.7,1.19,28.52-.75,12.18-2.67,25.36-8.36,32.82-18.74,1.23-1.72,4.07-5.25,2.05-7.1-2.26-2.08-11.98-1.86-15.12-1.65h.01Z"/>
  </g>
</svg>