<svg id="Layer_1" data-name="Layer 1" xmlns="http://www.w3.org/2000/svg" viewBox="0 0 216 216"><title>Temu logo - Brandlogos.net</title><path d="M444,276a48,48,0,0,1,48,48V444a48,48,0,0,1-48,48H324a48,48,0,0,1-48-48V324a48,48,0,0,1,48-48ZM390,388.2h-2.87a4.6,4.6,0,0,0-4.62,4.62v31.75a4.63,4.63,0,1,0,9.26,0V403.72l7.8,11a4.08,4.08,0,0,0,6.64,0l7.8-11v20.84a4.63,4.63,0,1,0,9.26,0V392.82a4.6,4.6,0,0,0-4.62-4.62h-2.87a3.4,3.4,0,0,0-2.78,1.43l-10.1,15.19-10.12-15.19A3.37,3.37,0,0,0,390,388.2Zm71.76,0a4.64,4.64,0,0,0-4.64,4.62V412.2c0,6.1-3.44,9.22-9.09,9.2s-9.09-3.23-9.07-9.47V392.82a4.63,4.63,0,0,0-9.26,0v19.32c0,11.31,6.92,17.06,18.23,17.06s18.48-5.7,18.46-17.34v-19A4.6,4.6,0,0,0,461.75,388.2Zm-130.13,0H304.56a4.63,4.63,0,1,0,0,9.26h8.9v27.06a4.63,4.63,0,1,0,9.26,0V397.46h8.9a4.63,4.63,0,1,0,0-9.26Zm40.06,0H346.6a4.64,4.64,0,0,0-4.64,4.62v31.7a4.64,4.64,0,0,0,4.64,4.64h25.08a4.64,4.64,0,0,0,0-9.28H351.22V413.3H369a4.63,4.63,0,1,0,0-9.26h-17.8v-6.58h20.46a4.63,4.63,0,0,0,0-9.26Zm-45.25-48.39-.86,0a9.23,9.23,0,0,0-7.47,3.9c-1.62-2.43-4.66-4.13-9.24-3.88l-.11.15a7.47,7.47,0,0,0,.7,8.73,5.63,5.63,0,0,1,1.6,5.17l-9.3,15a2.7,2.7,0,0,0,.74,3.63c2.4,1.69,7.24,4,15.61,4s13.18-2.32,15.59-4l.32-.27a2.68,2.68,0,0,0,.42-3.35l-9.28-15,.06.27-.11-.42a5.62,5.62,0,0,1,1.46-4.85l.17-.17a7.44,7.44,0,0,0,.7-8.73l-.08-.15Zm30.12,7c-3.19-6.33-7.32-7.4-9.39-5.76-1.58,1.27-5.23,6.26-5.48,6.6-4,5.72-3.8,7.11,1.37,10.36,2.91,1.84,5.25-.53,6.26-1.22a31.26,31.26,0,0,1-4.18,11.1c-1.2-.91-2.09-1.6-2.64-2.11a1.77,1.77,0,0,0-2.43.06,1.57,1.57,0,0,0-.46,1.2,1.7,1.7,0,0,0,.53,1.16,29.79,29.79,0,0,0,40,0,1.65,1.65,0,0,0,.08-2.36,1.75,1.75,0,0,0-2.43-.06c-.42.38-.84.74-1.29,1.1l-2.36-5.27q-.57-1.36-1.27-3.42a6.39,6.39,0,0,1,1.41-1.84,9.54,9.54,0,0,0,1.24-1.5,4.2,4.2,0,0,0,.19-4.89c-1.12-2.28-2.87-1.54-4.13-.19a9.65,9.65,0,0,1-5.53,2.91,6.25,6.25,0,0,1-4.94-.59C359.34,351,356.56,346.85,356.56,346.85ZM415,340.42c-6.75,6.41-.27,20.36-12.55,26.28-1.35.65-2.47-1.5-4.28-1.5-5.13,0-14.91,4.56-15.29,6.83-.32,1.88,3.86,3.38,16.18,3.4,10.72,0,14.18-16.31,17.93-16.33s2,14.79,1.6,16.33h3.92c-.34-1.54-.59-6.18-.57-12.74s1.18-8,2.13-13C424.94,345.42,418.57,341.69,415,340.42Zm38.47.53h-11A13.53,13.53,0,0,0,429,353.54l-.8,11.37a9.35,9.35,0,0,0,9.3,10h21a9.35,9.35,0,0,0,9.32-10l-.8-11.37A13.55,13.55,0,0,0,453.52,340.95ZM360.16,367.1c3.31,0,5.84,1.62,6.77,4.64a25.8,25.8,0,0,1-6.81.86,21.38,21.38,0,0,1-6.9-.91A7.34,7.34,0,0,1,360.16,367.1ZM443,350.38v.32a5,5,0,1,0,10,0v-.32c0-1.22,4.43-1.22,4.43,0v.32a9.42,9.42,0,0,1-18.84,0v-.32C438.61,349.15,443,349.15,443,350.38Z" transform="translate(-276 -276)" style="fill:#fb7701"/></svg>