<svg xmlns="http://www.w3.org/2000/svg" viewBox="0 0 310.6 78.2"><title>Yahoo Japan logo</title><path d="M667.3,472.9,666,478.06l-7,29.2h-6.54V472.9ZM448.54,495.27s-5.17,11-5.74,12.51h10.65Zm169.61-13.68h-.6c-.81,0-1.6.09-2.42.09-6,.46-16.89,4-17.12,14.17.23,10.18,11.12,13.86,17.12,14.28a22.58,22.58,0,0,0,2.42.09c.79,0,1.6,0,2.42-.09,6-.41,16.89-4.1,17.12-14.28-.23-10.23-11.12-13.75-17.12-14.17a20.15,20.15,0,0,0-2.42-.09Zm-59.88,5.49-1.61.08c-5.49.15-16.11,3.29-16.11,12.76v.95c0,9.49,10.66,12.61,16.11,12.76l1.61.08,1.61-.08c5.5-.15,16.12-3.29,16.12-12.76v-.95c0-9.49-10.67-12.61-16.12-12.76Zm60-10.54c17.68.37,28.64,7.73,29,19.13v.2h0V496c-.35,11.89-11.37,18.91-29,19.28h-1.48c-17.67-.37-28.68-7.39-29-19.28v-.38c.39-11.85,11.41-18.75,29.08-19.12Zm-86.72,1.75-.35,3.34c-1.32.11-6,.9-7.63,1v30.13s6.87.84,8.29,1.09l-.41,3.41c-6.54-.39-18-.23-24.78,0l.4-3.47c1-.1,6.37-.95,7.73-1.09V500.82c-3.27,0-21.45.39-24.32,1.09v10.64s7.84.9,9.67,1.09l-.41,3.6c-7.14-.4-21.33-.41-28.08,0l.45-3.86c2.11-.05,7.78-.71,9.1-.92.2-2.49.29-6.35.3-10.46v-6.09c0-1.83-.1-7.12-.21-8.95-1.56,0-8.05-.61-9.89-.71l.45-3.41c5.86.33,24,.32,28.95,0L500.3,486c-1.42.08-7.84,1-9.81,1v9.44H514.8v-13.8c-1.79-.19-6.17-1.17-8.11-1.25l.4-3.17c4.07.31,20.14.25,24.44,0Zm27.49,4c15.88.38,26.31,6.92,26.31,17.82v.42c-.15,10.64-10.43,17.5-26.31,17.83h-1.54c-15.87-.34-26-7.63-26.16-17.87v-.33c0-10.88,9.31-17.53,26.16-17.87Zm91.43,31.08,4.47.22,4.19-.15-.88,7.42-4.14,0-4.49.18.86-7.63ZM437,490.31c1.41.08,13.8.16,17.72.16h9.19l-.69,2.92-5.7.89c3.11,7.75,10,24.86,11.89,27.88l.06,0c1.62.29,6.24,1.39,8,1.48L477,527c-.63-.09-21.78,0-25,0h-.34l.44-3.63c1.92-.09,6.77-.84,6.77-.84l-4.08-11.06s-11.44.17-13.46.56c-.38.66-3.17,6.46-3.17,6.46l6.14,1.45-.38,3.27c-1.62-.09-19.22-.2-20.59,0l.47-3.68c1.65-.2,6-1.24,7.82-1.64,2-2.88,12-22.85,12-22.85l-6.89-1.64Zm-38.33-17-.6,3.53c-1.82.46-10.6.63-12.89,1.23,5.93,8.82,15.26,20.16,18.34,24.58,1.67-2.45,17.58-13.57,18-17.07-2.28-.46-9.81-1.55-11-1.55l-.73-3.9h35.84L443,484c-1.53.14-7.86,1.56-10,2s-24.1,17.75-25.47,21.71c-.31,1.37,0,16.09,0,16.09l12.39.82-.44,4.08c-1.78-.12-13.25-.1-20.44-.1-3.65,0-14.78.4-18.53.29L381,525a28,28,0,0,0,8.12-.75c2.18-.58,3.76-1.45,3.76-3.65V507.78c-.76-2.28-19-25.19-23.66-28.83-1.4-.43-10.31-1.41-12.49-1.85l.45-3.84h41.51Zm216.35,56s-3,7-3.42,8.08l6.56,0Zm-47.57,0L564,537.31l6.56,0Zm6.35-3.58-.09,1.67-3,.53c1.75,4.39,5.69,13.71,7.13,16.75l3.43.63-.2,1.78H569.67l.25-1.5c1.48-.28,3.49-.71,3.49-.71l-2.18-5.63h-8c-.63,1.27-2.4,5.53-2.4,5.53l2.82.8V547c-.87,0-6.54-.09-9.11,0l.19-1.72c.82-.28,1.66-.55,2.6-.89.87-1.23,5.9-12.1,7.85-16.35l-2.94-.51V526l11.53-.39Zm17.7-.15c1.24,0,3.2.09,3.2.09,6,.12,8.53,3.43,8.53,7.26V533c0,3.29-3.59,5.53-9.2,6.09v-1.85c2.67-.43,5.11-1.52,5.11-4.14v-.37c0-1.55-.65-4-2.94-4.63a23.52,23.52,0,0,0-4.36-.31c-.05.67.16,16,.26,16.72.75.19,3.73.73,4.56.95l.1,1.58H583.54l.2-1.84c.82-.21,2.93-.63,3.57-.77.17-3.07-.09-13.91-.17-16.53q-1.78-.13-3.56-.32l-.35-2.1Zm29.68.14-.19,1.84-2.75.37c1,2.58,4.88,12,7.18,16.75l3.36.71-.2,1.78H617.17l.35-1.55c1.48-.28,3.49-.71,3.49-.71l-2.18-5.63h-8c-.64,1.29-2.4,5.54-2.4,5.54l2.81.76V547c-.88,0-6.51-.14-9.11,0l.19-1.72c.92-.34,1.84-.62,2.61-.89.87-1.24,5.87-12.1,7.82-16.35l-2.94-.51V526Zm34.66.08-.12,1.88-2.91.65c-.07,1.89.14,15.73.17,19,0,.48-.54.72-1,.28-3-2.93-12.53-13.74-15.72-17.66,0,2.45.12,12.3.15,14.17,1.2.33,4,1,4.48,1.09l.12,2H630.53v-1.91c1-.44,2-.79,2.93-1.15.13-1.15.11-14.79.12-15.66-.78-.08-2.35-.11-3.44-.16v-2.42h7.56c2.76,3.13,9.35,10.5,12.7,14.23,0-3.16-.19-10.56-.23-11.84-.57-.11-1.86-.23-3.27-.52l-.19-1.86c.57,0,4.16.11,4.83.11s3.67-.17,4.29-.23Zm-99.55-3.34-.15,1.67c-.77.19-3.6,1.15-4.42,1.39-.09,2.6-.5,14.26-.5,14.26-.23,5.45-2.58,9-8.83,11.4l-2.26-.56c3-1.81,4.36-3.39,4.76-4.72.62-1.71.94-5.68.94-13,0,0-.07-5.51-.21-7.38-.94-.15-4.76-1.09-5.95-1.35l-.06-1.73q4.94.13,9.87.15c2.1,0,4.65-.11,6.8-.15Z" transform="translate(-356.7 -472.9)" style="fill:#f03"/></svg>